<svg width="100" height="100" viewBox="0 0 100 100" fill="none" xmlns="http://www.w3.org/2000/svg">
<g clip-path="url(#clip0_156_8832)">
<rect width="100" height="100" rx="50" fill="#F6F6F6"/>
<path fill-rule="evenodd" clip-rule="evenodd" d="M30.625 40.3333C30.625 29.6283 39.2951 20.9583 50 20.9583C60.705 20.9583 69.375 29.6283 69.375 40.3333C69.375 51.0382 60.705 59.7083 50 59.7083C39.2951 59.7083 30.625 51.0382 30.625 40.3333Z" fill="#848484"/>
<path fill-rule="evenodd" clip-rule="evenodd" d="M9.95837 86.8333C9.95837 83.8718 11.4316 81.1822 14.0612 78.7553C16.6995 76.3203 20.4149 74.238 24.6406 72.5452C33.094 69.1588 43.264 67.4583 50 67.4583C56.7361 67.4583 66.9061 69.1588 75.3595 72.5452C79.5851 74.238 83.3006 76.3203 85.9389 78.7553C88.5685 81.1822 90.0417 83.8718 90.0417 86.8333V98.4583C90.0417 99.885 88.8851 101.042 87.4584 101.042H12.5417C11.115 101.042 9.95837 99.885 9.95837 98.4583V86.8333Z" fill="#848484"/>
</g>
<defs>
<clipPath id="clip0_156_8832">
<rect width="100" height="100" rx="50" fill="white"/>
</clipPath>
</defs>
</svg>
